<svg version="1.1" class="right_arrow arrow fat_right_arrow" xmlns="http://www.w3.org/2000/svg" xmlns:xlink="http://www.w3.org/1999/xlink" x="0px" y="0px"
	 viewBox="0 0 38.1 38.8" enable-background="new 0 0 38.1 38.8" xml:space="preserve">
<g>
	<path fill-rule="evenodd" clip-rule="evenodd" d="M18.2,37.9C28.8,38.1,37.3,29.5,37,19c-0.2-5.4-2.5-9.8-5.6-12.8
		C28.4,3.4,23.8,0.5,17.5,1C9,1.7,4,6.5,1.3,13.4c7.4,0,14.7,0,22.1,0c0-1.5,0-4.1,0-6c3.2,2.7,6.1,6,9.2,9c0.4,0.4,3.1,2.6,3.1,3.1
		c0,0-1.1,1.1-1.5,1.5c-1.7,1.7-3.1,3-4.7,4.5c-2.2,2.2-4,4.4-6.1,5.9c0-1.9,0-4.4,0-5.9c-7.4,0-14.7,0-22.1,0
		C3.9,32.7,9.8,37.7,18.2,37.9z"/>
	<path class="arrow_bottom" fill-rule="evenodd" clip-rule="evenodd" d="M1.3,25.5c7.4,0,14.7,0,22.1,0c0,1.5,0,4,0,5.9c2.1-1.4,4-3.7,6.1-5.9
		c1.5-1.5,3-2.8,4.7-4.5c0.3-0.3,1.5-1.4,1.5-1.5c0-0.5-2.7-2.7-3.1-3.1c-3-3-6-6.3-9.2-9c0,1.9,0,4.5,0,6c-7.4,0-14.7,0-22.1,0
		C4,6.5,9,1.7,17.5,1c6.3-0.5,10.9,2.3,13.8,5.2c3.1,3,5.4,7.3,5.6,12.8c0.3,10.5-8.2,19.1-18.8,18.9C9.8,37.7,3.9,32.7,1.3,25.5z"
		/>
</g>
</svg>