<?xml version="1.0" encoding="utf-8"?>
<!-- Generator: Adobe Illustrator 17.0.2, SVG Export Plug-In . SVG Version: 6.00 Build 0)  -->
<!DOCTYPE svg PUBLIC "-//W3C//DTD SVG 1.1//EN" "http://www.w3.org/Graphics/SVG/1.1/DTD/svg11.dtd">
<svg class="mail_svg svg soc_svg" version="1.1" id="mailer_svg_1" xmlns="http://www.w3.org/2000/svg" xmlns:xlink="http://www.w3.org/1999/xlink" x="0px" y="0px"
	 viewBox="0 0 1000 1000" enable-background="new 0 0 1000 1000" xml:space="preserve">
<path d="M0,499.968c0-138.012,48.825-255.843,146.475-353.493S361.956,0,499.968,0s255.843,48.825,353.493,146.475
	s146.475,215.481,146.475,353.493s-48.825,255.843-146.475,353.493S637.98,999.936,499.968,999.936s-255.843-48.825-353.493-146.475
	S0,637.98,0,499.968L0,499.968z M244.125,693.315h511.686L589.806,519.498l-89.838,50.778l-89.838-50.778L244.125,693.315z
	 M244.125,634.725l130.851-136.71l-130.851-74.214L244.125,634.725L244.125,634.725z M244.125,378.882l255.843,144.522
	l255.843-144.522v-72.261H244.125L244.125,378.882L244.125,378.882z M624.96,498.015l130.851,136.71V423.801L624.96,498.015z"/>
</svg>