<?xml version="1.0" encoding="utf-8"?>
<!-- Generator: Adobe Illustrator 20.1.0, SVG Export Plug-In . SVG Version: 6.00 Build 0)  -->
<svg version="1.1" id="Layer_1" xmlns="http://www.w3.org/2000/svg" xmlns:xlink="http://www.w3.org/1999/xlink" x="0px" y="0px"
	 viewBox="0 0 500 500" style="enable-background:new 0 0 500 500;" xml:space="preserve">
<style type="text/css">
	.st0{fill:none;stroke:#000000;stroke-width:43.2;stroke-miterlimit:10;}
</style>
<g>
	<g>
		<path d="M222.4,95.7c33.8,0,65.7,13.2,89.6,37.1c23.9,23.9,37.1,55.7,37.1,89.6S335.9,288,312,312c-23.9,23.9-55.7,37.1-89.6,37.1
			s-65.7-13.2-89.6-37.1c-23.9-23.9-37.1-55.7-37.1-89.6s13.2-65.7,37.1-89.6C156.7,108.9,188.6,95.7,222.4,95.7 M222.4,52.5
			c-93.8,0-169.9,76.1-169.9,169.9s76.1,169.9,169.9,169.9s169.9-76.1,169.9-169.9S316.2,52.5,222.4,52.5L222.4,52.5z"/>
	</g>
	<g>
		<line class="st0" x1="447.5" y1="447.5" x2="335" y2="335"/>
	</g>
</g>
</svg>
